# xmcd
#
# Track frame offsets:
#	150
#	15075
#	29667
#	49945
#	64845
#	80410
#	98095
#	112397
#	127520
#	145632
#
# Disc length: 2099 seconds
#
# Revision: 4
# Processed by: cddbd v1.5.2PL0 Copyright (c) Steve Scherf et al.
# Submitted via: audiograbber 1.83.01
#
DISCID=7b08310a
DTITLE=Rosanne Cash - Super Hits
DYEAR=1998
DGENRE=Oldies
TTITLE0=Seven Year Ache
TTITLE1=My Baby Thinks He's A Train
TTITLE2=Blue Moon With Heartache
TTITLE3=I Don't Know Why You Don't Want Me
TTITLE4=Never Be You
TTITLE5=The Way We Make A Broken Heart
TTITLE6=Tennessee Flat Top Box
TTITLE7=If You Change Your Mind
TTITLE8=Runaway Train
TTITLE9=I Don't Want To Spoil The Party
EXTD=YEAR: 1998
EXTT0=
EXTT1=
EXTT2=
EXTT3=
EXTT4=
EXTT5=
EXTT6=
EXTT7=
EXTT8=
EXTT9=
PLAYORDER=
